<svg xmlns="http://www.w3.org/2000/svg" width="400" height="400" viewBox="-200 -200 400 400"><path fill="#fff" d="M-200-200h400v400h-400z"/><g stroke="#ccc" stroke-width=".5"><path d="M0 566 327 0M0 566-327 0M-45 489 300-9M45 489-300-9M-82 424 276-18M82 424-276-18M-113 370 252-26M113 370-252-26M-140 323 231-33M140 323-231-33M-163 283 210-40M163 283-210-40M-184 247 191-47M184 247-191-47M-202 216 172-54M202 216-172-54M-218 189 155-60M218 189-155-60M-232 164 138-65M232 164-138-65M-245 141 122-71M245 141-122-71M-257 121 108-76M257 121-108-76M-267 103 93-81M267 103-93-81M-277 86 80-86M277 86-80-86M-286 71 67-90M286 71-67-90M-294 57 54-94M294 57-54-94M-301 44 43-98M301 44-43-98M-308 31 31-102M308 31-31-102M-315 20 20-106M315 20-20-106M-321 10 10-110M321 10-10-110M-327 0 0-113M327 0 0-113"/></g><g stroke="#000" stroke-linecap="round" stroke-linejoin="round"><path fill="rgba(255,128,0,0.8)" d="m105-45 2-17-16-6-2 17z"/><path fill="rgba(255,128,0,0.8)" d="m94-39-16-6 11-6 16 6z"/><path fill="rgba(255,128,0,0.8)" d="m78-45 3-17 10-6-2 17zM94-39l3-17 10-6-2 17z"/><path fill="rgba(255,128,0,0.8)" d="m97-56-16-6 10-6 16 6z"/><path fill="rgba(255,128,0,0.8)" d="m94-39-16-6 3-17 16 6z"/><path fill="rgba(0,128,255,0.8)" d="m21-156 1-33-22-4v31z"/><path fill="rgba(255,0,0,0.8)" d="m-78-45-3-17-10-6 2 17z"/><path fill="rgba(255,0,0,0.8)" d="m-94-39-11-6 16-6 11 6z"/><path fill="rgba(255,0,0,0.8)" d="m-105-45-2-17 16-6 2 17z"/><path fill="rgba(255,0,0,0.8)" d="m-94-39-3-17 16-6 3 17z"/><path fill="rgba(255,0,0,0.8)" d="m-97-56-10-6 16-6 10 6z"/><path fill="rgba(0,128,255,0.8)" d="m0-151-21-5 21-6 21 6z"/><path fill="rgba(0,128,255,0.8)" d="m-21-156-1-33 22-4v31zM0-151v-33l22-5-1 33z"/><path fill="rgba(0,128,255,0.8)" d="m0-184-22-5 22-4 22 4z"/><path fill="rgba(255,0,0,0.8)" d="m-94-39-11-6-2-17 10 6z"/><path fill="rgba(0,128,255,0.8)" d="m0-151-21-5-1-33 22 5z"/></g><text fill="rgba(0,0,0,1)" dominant-baseline="central" font-family="sans-serif" font-size="14" text-anchor="middle" transform="matrix(-.8651 -.49946 .93202 -.36085 -93.988 -61.91)">X=7</text><text fill="rgba(0,0,0,1)" dominant-baseline="central" font-family="sans-serif" font-size="14" text-anchor="middle" transform="matrix(-.97998 -.19737 .97998 -.19737 0 -188.469)">Y=7</text><text fill="rgba(0,0,0,1)" dominant-baseline="central" font-family="sans-serif" font-size="14" text-anchor="middle" transform="matrix(-.93202 -.36085 .8651 -.49946 93.988 -61.91)">Z=7</text><defs><linearGradient id="a" x1="0" x2="-490" y1="0" y2="-283" gradientUnits="userSpaceOnUse"><stop offset="0%" stop-color="red"/><stop offset="32.258%" stop-color="rgba(255,255,255,0)"/><stop offset="100%" stop-color="rgba(255,255,255,0)"/></linearGradient><linearGradient id="b" x1="0" x2="0" y1="0" y2="-566" gradientUnits="userSpaceOnUse"><stop offset="0%" stop-color="green"/><stop offset="34.483%" stop-color="rgba(255,255,255,0)"/><stop offset="100%" stop-color="rgba(255,255,255,0)"/></linearGradient><linearGradient id="c" x1="0" x2="490" y1="0" y2="-283" gradientUnits="userSpaceOnUse"><stop offset="0%" stop-color="#00f"/><stop offset="32.258%" stop-color="rgba(255,255,255,0)"/><stop offset="100%" stop-color="rgba(255,255,255,0)"/></linearGradient></defs><path stroke="url(#a)" d="m0 0-490-283"/><path stroke="url(#b)" d="M0 0v-566"/><path stroke="url(#c)" d="m0 0 490-283"/></svg>