<svg xmlns="http://www.w3.org/2000/svg" width="400" height="400" viewBox="-200 -200 400 400"><g stroke="#000" stroke-linecap="round" stroke-linejoin="round"><path fill="rgba(0,128,255,0.9)" d="m33-23 4-73-71-10 3 68z"/><path fill="rgba(0,128,255,0.9)" d="M0 12-71-7l40-31 64 15z"/><path fill="rgba(0,128,255,0.9)" d="m-71-7-8-77 45-22 3 68zM0 12v-81l37-27-4 73z"/><path fill="rgba(0,128,255,0.9)" d="m0-69-79-15 45-22 71 10z"/><path fill="rgba(0,128,255,0.9)" d="M0 12-71-7l-8-77L0-69z"/><path fill="rgba(255, 0, 0, 0.9)" d="m132 48 19-90L45-61l-5 84z"/><path fill="rgba(255, 0, 0, 0.9)" d="M109 115 0 78l40-55 92 25z"/><path fill="rgba(255, 0, 0, 0.9)" d="M0 78v-96l45-43-5 84zM109 115l19-103 23-54-19 90z"/><path fill="rgba(255, 0, 0, 0.9)" d="M128 12 0-18l45-43 106 19z"/><path fill="rgba(255, 0, 0, 0.9)" d="M109 115 0 78v-96l128 30z"/></g><text fill="#fff" dominant-baseline="central" font-family="sans-serif" font-size="14" text-anchor="middle" transform="matrix(-.9731 -.2303 .38405 -.92294 81.238 -27.18)">Hello World</text></svg>