<svg xmlns="http://www.w3.org/2000/svg" width="400" height="400" viewBox="-200 -200 400 400"><path fill="#fff" d="M-200-200h400v400h-400z"/><g stroke="#000" stroke-linecap="round" stroke-linejoin="round"><path fill="rgba(1,0,1,1)" d="m-61-4 33-1-1-33-33 1z"/><path fill="rgba(1,0,1,1)" d="m-61-4 33-1 8 5-35 1z"/><path fill="rgba(1,0,1,1)" d="m-28-5-1-33 9 2V0zM-61-4l-1-33 6 2 1 36z"/><path fill="rgba(1,0,1,1)" d="m-62-37 33-1 9 2-36 1z"/><path fill="rgba(1,0,1,1)" d="m-55 1-1-36 36-1V0z"/><path fill="#ff0" d="m-32-167 48 4v-53l-49-6z"/><path fill="green" d="m-28 185 42-9v-40l-43 7z"/><path fill="#00f" d="m122 11 35-3 2-40-35 1z"/><path fill="green" stroke="none" d="m-28 185 42-9v1zM14 176v-40 41zM-28 185l-1-42zM-29 143l43-7z"/><path fill="#00f" stroke="none" d="m122 11 35-3v1zM157 8l2-40h1l-3 41zM122 11l2-42z"/><path fill="#00f" stroke="none" d="m124-31 35-1h1z"/><path fill="#ff0" stroke="none" d="m-33-222 49 6zM16-163v-53zM-32-167l-1-55zM-32-167l48 4z"/><path fill="rgba(159,103,0,1)" stroke="none" d="M47-12 46-1l-87-7z"/><path fill="rgba(159,103,0,1)" stroke="none" d="m-41-8 87 7-87 5z"/><path fill="green" stroke="none" d="m14 177 16 26-11 3-41-8-6-13z"/><path fill="green" stroke="none" d="m14 136 17 23-1 44-16-26zM-29 143l6 12 1 43-6-13z"/><path fill="green" stroke="none" d="m14 136 17 23-12 2-42-6-6-12z"/><path fill="#00f" stroke="none" d="m157 9 30 7-37 3-28-8z"/><path fill="#00f" stroke="none" d="m189-1-2 17-30-7 1-16zM151 2l-1 17-28-8 1-16z"/><path fill="#00f" stroke="none" d="m150 19 1-17 38-3-2 17z"/><path fill="green" stroke="none" d="m19 161 12-2-1 44-11 3z"/><path fill="rgba(239,155,0,1)" stroke="none" d="m-21 8 36-1-31 1z"/><path fill="#00f" stroke="none" d="m190-12-1 11-31-6 1-10zM152-10l-1 12-28-7 1-10z"/><path fill="#00f" stroke="none" d="m151 2 1-12 38-2-1 11z"/><path fill="rgba(223,144,0,1)" stroke="none" d="m68 7-8-3V-8z"/><path fill="rgba(223,144,0,1)" stroke="none" d="M68 7 60-8l8 2z"/><path fill="rgba(239,155,0,1)" stroke="none" d="M10 4h-51l87-5z"/><path fill="rgba(223,144,0,1)" stroke="none" d="M54-10 53 2l-7-3z"/><path fill="rgba(223,144,0,1)" stroke="none" d="m54-10-8 9 1-11z"/><path fill="rgba(239,155,0,1)" stroke="none" d="m68 7-48 3L0 9l15-2zM60 4l8 3H15zM15 7l-36 1-4-1 35-3zM53 2 10 4l36-5z"/><path fill="rgba(255,171,16,1)" stroke="none" d="M47-12 4-10l6 2z"/><path fill="rgba(255,199,96,1)" stroke="none" d="M53 2 10-8V4z"/><path fill="rgba(255,199,96,1)" stroke="none" d="m53 2 1-12-44 2z"/><path fill="rgba(159,103,0,1)" stroke="none" d="M15 7V-6l45-2zM15 7 60-8V4z"/><path fill="rgba(255,199,96,1)" stroke="none" d="m21 3 47-9-47 3z"/><path fill="rgba(255,199,96,1)" stroke="none" d="M68 7V-6L21 3v7z"/><path fill="rgba(223,144,0,1)" stroke="none" d="M10 4V-8l5 2zM10 4l5-10V7z"/><path fill="rgba(239,155,0,1)" stroke="none" d="m0 9 15-2zM-16 8l31-1-27 1z"/><path fill="rgba(239,155,0,1)" stroke="none" d="M15 7 0 9l-12-1zM-33 7l43-3-39 3z"/><path fill="rgba(239,155,0,1)" stroke="none" d="m-29 7 39-3-35 3zM-36 7l-5-3 8 3z"/><path fill="rgba(239,155,0,1)" stroke="none" d="M-36 7h-1l-4-3zM10 4l-43 3-8-3zM-41 4h51z"/><path fill="rgba(255,171,16,1)" stroke="none" d="m4-10-45 2h51zM-41-8l8 3 43-3zM15-6l-5-2-35 3h4z"/><path fill="rgba(255,171,16,1)" stroke="none" d="M-33-5h4l39-3z"/><path fill="rgba(255,199,96,1)" stroke="none" d="M20 3h1v-6h-1zM21 3h-1v7h1z"/><path fill="rgba(255,171,16,1)" stroke="none" d="m-36-5-5-3 4 2zM-25-5l35-3-39 3z"/><path fill="rgba(255,176,32,1)" stroke="none" d="M-41 4V-8zM-41 4V-8z"/><path fill="rgba(157,101,0,1)" stroke="none" d="m-43 4-1-12h3zM-43 4l2-12V4z"/><path fill="rgba(163,105,0,1)" stroke="none" d="m-44-8 1 12-5 1z"/><path fill="rgba(163,105,0,1)" stroke="none" d="m-44-8-4 13V-7z"/><path fill="rgba(173,112,0,1)" stroke="none" d="M-48 5h-4l4-12z"/><path fill="rgba(173,112,0,1)" stroke="none" d="m-48-7-4 12V-7z"/><path fill="rgba(239,155,0,1)" stroke="none" d="M-51 6h-5z"/><path fill="rgba(186,120,0,1)" stroke="none" d="m-52 5-4 1V-7z"/><path fill="rgba(186,120,0,1)" stroke="none" d="m-52 5-4-12h4z"/><path fill="rgba(201,130,0,1)" stroke="none" d="M-56 6h-1V1z"/><path fill="rgba(201,130,0,1)" stroke="none" d="m-56 6-1-5v-7l1-1z"/><path fill="rgba(239,155,0,1)" stroke="none" d="m-44 7-4-2 8 2z"/><path fill="rgba(239,155,0,1)" stroke="none" d="M-52 5h4l4 2-2-1zM-48 5l5-1 4 3h-1z"/><path fill="rgba(239,155,0,1)" stroke="none" d="M-43 4h2l2 3z"/><path fill="rgba(239,155,0,1)" stroke="none" d="M-37 7h-2l-2-3zM-56 6h5-6zM-52 5l6 1h-10z"/><path fill="rgba(255,171,16,1)" stroke="none" d="m-51-6-5-1-1 1zM-48-7l8 1-4-2z"/><path fill="rgba(255,171,16,1)" stroke="none" d="M-41-8h-3l4 2h1z"/><path fill="rgba(255,171,16,1)" stroke="none" d="m-41-8 2 2h2zM-48-7h-4l6 1h2z"/><path fill="rgba(255,171,16,1)" stroke="none" d="M-52-7h-4l5 1h5zM-51-6l-5-1zM-40-6l-8-1 4 1zM-33-5l-8-3 5 3zM-41-8h51zM-16-5l31-1-36 1z"/><path fill="rgba(255,171,16,1)" stroke="none" d="m-12-5 27-1-31 1zM68-6H15L0-4l20 1zM0-4l15-2z"/><path fill="rgba(255,171,16,1)" stroke="none" d="m0-4 15-2-27 1zM54-10l-7-2-37 4zM68-6l-8-2-45 2z"/><path fill="#00f" stroke="none" d="m160-32 31 3-1 17-31-5zM124-31l29 4-1 17-28-5z"/><path fill="#00f" stroke="none" d="m160-32 31 3-38 2-29-4z"/><path fill="#ff0" stroke="none" d="m16-216 20-20-13-2-49 6-7 10z"/><path fill="#ff0" stroke="none" d="m16-216 20-20-1 60-19 13zM-33-222l7-10v58l-6 7z"/><path fill="#ff0" stroke="none" d="m16-163 19-13-13-1-48 3-6 7z"/><path fill="#00f" stroke="none" d="m152-10 1-17 38-2-1 17z"/><path fill="#ff0" stroke="none" d="m23-238 13 2-1 60-13-1z"/><path fill="rgba(255,199,97,1)" stroke="none" d="m-36-5 3 12V-5z"/><path fill="rgba(255,199,97,1)" stroke="none" d="M-36-5V7h3z"/><path fill="rgba(239,155,0,1)" stroke="none" d="m-42 7-9-1z"/><path fill="rgba(201,130,0,1)" stroke="none" d="M-57 6h-2V-6l2 7z"/><path fill="rgba(201,130,0,1)" stroke="none" d="m-57 1-2-7h2z"/><path fill="rgba(219,142,0,1)" stroke="none" d="m-61 7-1-12 3-1zM-61 7l2-13V6z"/><path fill="rgba(238,154,0,1)" stroke="none" d="M-63 8V-5h1zM-63 8l1-13 1 12z"/><path fill="rgba(255,166,3,1)" stroke="none" d="M-63 8V-5zM-64-4l1-1V8z"/><path fill="rgba(239,155,0,1)" stroke="none" d="m-63 8 21-1zM-39 7h-5 4zM-44 7h2l-4-1zM-39 7h-1zM-39 7h2zM-63 8l2-1h19z"/><path fill="rgba(239,155,0,1)" stroke="none" d="m-59 6 17 1h-19z"/><path fill="rgba(239,155,0,1)" stroke="none" d="m-51 6 9 1-17-1h2z"/><path fill="rgba(239,155,0,1)" stroke="none" d="m-46 6 4 1-9-1z"/><path fill="rgba(255,196,88,1)" stroke="none" d="M-42 7h3V-5z"/><path fill="rgba(255,171,16,1)" stroke="none" d="M-62-5h20l-17-1z"/><path fill="rgba(255,171,16,1)" stroke="none" d="m-59-6 17 1-9-1h-6zM-64-4l22-1h-21zM-40-6l1 1zM-40-6l1 1v-1zM-38-6h-1v1zM-46-6l4 1-2-1z"/><path fill="rgba(255,171,16,1)" stroke="none" d="m-51-6 9 1-4-1zM-42-5l-9-1zM-63-5h21-20z"/><path fill="rgba(255,199,96,1)" stroke="none" d="m-64-4 1 12 21-1z"/><path fill="rgba(255,171,16,1)" stroke="none" d="m-39-5-1-1h-4l2 1z"/><path fill="rgba(255,199,96,1)" stroke="none" d="m-64-4 22 11V-5z"/><path fill="rgba(255,196,88,1)" stroke="none" d="M-42-5V7l3-12z"/><path fill="rgba(239,155,0,1)" stroke="none" d="M-42 7"/><path fill="rgba(255,171,16,1)" stroke="none" d="M-42-5"/><path fill="rgba(255,199,96,1)" stroke="none" d="M-42 7V-5z"/><path fill="rgba(255,187,62,1)" stroke="none" d="M-42-5V7zM-42-5V7z"/><path fill="green" stroke="none" d="m-19 205-3-7 26 5z"/><path fill="green" stroke="none" d="m-23 155 3 6 1 44-3-7z"/><path fill="green" stroke="none" d="m-20 161-3-6 27 4z"/><path fill="rgba(239,155,0,1)" stroke="none" d="M-29 8h13zM-36 7h-3 2z"/><path fill="rgba(255,200,100,1)" stroke="none" d="M-36-5h-3l3 12z"/><path fill="rgba(255,200,100,1)" stroke="none" d="M-39 7h3l-3-12z"/><path fill="rgba(239,155,0,1)" stroke="none" d="M-3 9h7zM-21 8h-8l4-1zM-3 9h3zM-29 8h17l-18 1z"/><path fill="rgba(239,155,0,1)" stroke="none" d="M0 9h-3l-27 1V9l18-1zM-33 7h4-1zM-30 7h5l-4 1zM-32 9v1h-3zM-32 9h2v1h-2z"/><path fill="rgba(255,169,13,1)" stroke="none" d="M-29-5V8-4zM-29-5V8z"/><path fill="rgba(255,183,50,1)" stroke="none" d="m-31-5 2 13V-5zM-31-5l1 12 1 1z"/><path fill="rgba(255,193,80,1)" stroke="none" d="m-33-5 3 12-1-12z"/><path fill="rgba(255,193,80,1)" stroke="none" d="M-33-5V7h3z"/><path fill="rgba(228,148,0,1)" stroke="none" d="M-29-4V8l-1 1z"/><path fill="rgba(228,148,0,1)" stroke="none" d="m-29-4-1 13V-4z"/><path fill="rgba(193,125,0,1)" stroke="none" d="M-30-4V9h-2z"/><path fill="rgba(193,125,0,1)" stroke="none" d="m-30-4-2 13V-3z"/><path fill="rgba(167,108,0,1)" stroke="none" d="M-32-3V9l-3 1z"/><path fill="rgba(167,108,0,1)" stroke="none" d="m-32-3-3 13V-3z"/><path fill="rgba(255,171,16,1)" stroke="none" d="M-25-5h-4 8zM-33-5h4zM-36-5l-2-1-1 1zM-31-5h6-4zM-29-5v1l13-1h-5zM-32-3h2v-1z"/><path fill="rgba(255,171,16,1)" stroke="none" d="M-29-4h-1l18-1h-4z"/><path fill="rgba(155,100,0,1)" stroke="none" d="M-39 10V-3h4z"/><path fill="rgba(239,155,0,1)" stroke="none" d="M-39 10h4z"/><path fill="green" stroke="none" d="m19 206-26 6-10-2-2-5 23-2z"/><path fill="green" stroke="none" d="m-20 161 2 4 1 45-2-5z"/><path fill="green" stroke="none" d="m19 161-26 5-11-1-2-4 24-2z"/><path fill="green" stroke="none" d="m-7 166 26-5v45l-26 6z"/><path fill="rgba(239,155,0,1)" stroke="none" d="m20 10-28 1h-9l14-2h7zM-17 11l14-2z"/><path fill="rgba(239,155,0,1)" stroke="none" d="m-3 9-14 2-13-1zM-32 10h-3zM-30 10h-2zM-35 10"/><path fill="rgba(155,100,0,1)" stroke="none" d="M-35-3v13h-4z"/><path fill="rgba(255,199,96,1)" stroke="none" d="m-8 9 28-6v-6L-8-2z"/><path fill="rgba(255,199,96,1)" stroke="none" d="M20 3-8 9v2l28-1z"/><path fill="rgba(255,171,16,1)" stroke="none" d="M-35-3h-1zM-32-3h2zM0-4l-17 2h9l28-1zM-17-2 0-4zM-32-3h-3zM-35-3h-4 3z"/><path fill="rgba(158,102,0,1)" stroke="none" d="M-39-3v13h-2z"/><path fill="rgba(158,102,0,1)" stroke="none" d="m-39-3-2 13V-3z"/><path fill="rgba(159,103,0,1)" stroke="none" d="m-41 10-20 1 20-14z"/><path fill="rgba(159,103,0,1)" stroke="none" d="m-61-2 20-1-20 14z"/><path fill="green" stroke="none" d="m-7 212-9 2-1-4z"/><path fill="green" stroke="none" d="m-18 165 2 3v46l-1-4z"/><path fill="green" stroke="none" d="m-7 166-9 2-2-3z"/><path fill="green" stroke="none" d="M-16 214v-46l9-2v46z"/><path fill="rgba(239,155,0,1)" stroke="none" d="M-42 13h-5l8-3z"/><path fill="rgba(239,155,0,1)" stroke="none" d="m-42 13 3-3 2 3z"/><path fill="rgba(239,155,0,1)" stroke="none" d="M-39 10h4l-2 3zM-41 10h2l-8 3z"/><path fill="rgba(239,155,0,1)" stroke="none" d="m-52 13 11-3-6 3z"/><path fill="rgba(239,155,0,1)" stroke="none" d="m-52 13-4-1 15-2z"/><path fill="rgba(239,155,0,1)" stroke="none" d="m-60 11 19-1-15 2z"/><path fill="rgba(239,155,0,1)" stroke="none" d="m-61 11 20-1-19 1zM-8 11l-21 2 12-2zM-29 13l12-2z"/><path fill="rgba(239,155,0,1)" stroke="none" d="m-17 11-12 2-1-3zM-32 10l3 3-6-3z"/><path fill="rgba(239,155,0,1)" stroke="none" d="m-30 10 1 3-3-3zM-29 13h-3l-3-3z"/><path fill="rgba(239,155,0,1)" stroke="none" d="m-37 13 2-3 3 3z"/><path fill="rgba(255,176,32,1)" stroke="none" d="M-29 13V-1zM-29 13V-1z"/><path fill="rgba(255,197,92,1)" stroke="none" d="m-32 0 3 13V-1h-3z"/><path fill="rgba(255,197,92,1)" stroke="none" d="m-29 13-3-13v13z"/><path fill="rgba(255,199,96,1)" stroke="none" d="M-29-1v14l21-4V-2zM-8 9l-21 4 21-2z"/><path fill="rgba(255,197,92,1)" stroke="none" d="M-32-1v1zM-32 0v-1 14z"/><path fill="rgba(255,200,98,1)" stroke="none" d="M-32 13V-1l-5 14z"/><path fill="rgba(255,171,16,1)" stroke="none" d="m-43 0 4-3-9 2zM-41-3l-11 2h4z"/><path fill="rgba(255,171,16,1)" stroke="none" d="m-41-3-16 2h5z"/><path fill="rgba(255,171,16,1)" stroke="none" d="m-41-3-19 1 3 1z"/><path fill="rgba(255,171,16,1)" stroke="none" d="m-41-3-20 1h1zM-32-1l-3-2h-1l-1 3zM-43 0h6l-2-3zM-41-3l-7 2 9-2zM-32-3l3 2-1-2zM-17-2l-12 1 21-1zM-29-1l12-1z"/><path fill="rgba(255,171,16,1)" stroke="none" d="m-35-3 6 2-3-2zM-32-1h3l-6-2zM-39-3l2 3 1-3z"/><path fill="rgba(255,200,98,1)" stroke="none" d="m-32-1-5 1v13z"/><path fill="rgba(255,201,101,1)" stroke="none" d="M-37 13V0l-5 13z"/><path fill="rgba(255,201,101,1)" stroke="none" d="m-43 0 1 13 5-13z"/><path fill="rgba(255,200,99,1)" stroke="none" d="m-42 13-6-14 1 14z"/><path fill="rgba(255,200,99,1)" stroke="none" d="m-42 13-1-13-5-1z"/><path fill="rgba(255,171,16,1)" stroke="none" d="m-30-4 1 3L0-4l-12-1z"/><path fill="#ff0" stroke="none" d="m23-238-42-6-7 12z"/><path fill="#ff0" stroke="none" d="m-26-232 7-12 1 63-8 7z"/><path fill="#ff0" stroke="none" d="m22-177-40-4-8 7z"/><path fill="#ff0" stroke="none" d="m-18-181-1-63 42 6-1 61z"/><path fill="rgba(255,198,94,1)" stroke="none" d="m-47 13-5-14v14z"/><path fill="rgba(255,198,94,1)" stroke="none" d="m-47 13-1-14h-4z"/><path fill="rgba(255,195,85,1)" stroke="none" d="m-52 13-5-14 1 13z"/><path fill="rgba(255,195,85,1)" stroke="none" d="M-52 13V-1h-5z"/><path fill="rgba(0,1,1,1)" stroke="none" d="m109 74 7-1 3-76h-6z"/><path fill="rgba(0,1,1,1)" stroke="none" d="m109 74 7-1 8 5z"/><path fill="rgba(0,1,1,1)" stroke="none" d="m116 73 3-76 9 2-4 79z"/><path fill="rgba(0,1,1,1)" stroke="none" d="M113-3h6l9 2z"/><path fill="rgba(255,191,73,1)" stroke="none" d="m-56 12-4-14v13z"/><path fill="rgba(255,191,73,1)" stroke="none" d="m-56 12-1-13-3-1z"/><path fill="rgba(0,1,1,1)" stroke="none" d="m60 80 49-6 4-77-51 3z"/><path fill="rgba(0,1,1,1)" stroke="none" d="m60 80 49-6 15 4 47 25-40 7z"/><path fill="rgba(0,1,1,1)" stroke="none" d="m128-1 49 12-6 92-47-25z"/><path fill="rgba(0,1,1,1)" stroke="none" d="m62 0 51-3 15 2 49 12-41 3z"/><path fill="rgba(0,1,1,1)" stroke="none" d="m136 14 41-3-6 92-40 7z"/><path fill="rgba(255,186,58,1)" stroke="none" d="m-60 11-1-13v13z"/><path fill="rgba(255,186,58,1)" stroke="none" d="M-60 11V-2h-1z"/><path fill="red" d="m-232 35 60-4-4-53-61 2z"/><path fill="red" d="m-232 35 60-4-5 13-70 5z"/><path fill="red" d="m-232 35-5-55-16 6 6 63zM-172 31l-4-53-6 6 5 60z"/><path fill="red" d="m-237-20 61-2-6 6-71 2z"/><path fill="red" d="m-247 49-6-63 71-2 5 60z"/><path fill="rgba(0,1,1,1)" stroke="none" d="m45 82 15-2 2-80-15 1z"/><path fill="rgba(0,1,1,1)" stroke="none" d="m45 82 15-2 71 30-43 6z"/><path fill="rgba(0,1,1,1)" d="m45 82 2-81 45 16-4 99z"/><path fill="rgba(0,1,1,1)" stroke="none" d="m47 1 15-1 74 14-44 3z"/><path fill="rgba(0,1,1,1)" stroke="none" d="m88 116 4-99 44-3-5 96z"/></g><defs><linearGradient id="a" x1="0" x2="565" y1="0" y2="-29" gradientUnits="userSpaceOnUse"><stop offset="0%" stop-color="red"/><stop offset="10.44%" stop-color="rgba(255,255,255,0)"/><stop offset="100%" stop-color="rgba(255,255,255,0)"/></linearGradient><linearGradient id="b" x1="0" x2="0" y1="0" y2="-566" gradientUnits="userSpaceOnUse"><stop offset="0%" stop-color="green"/><stop offset="10.934%" stop-color="rgba(255,255,255,0)"/><stop offset="100%" stop-color="rgba(255,255,255,0)"/></linearGradient><linearGradient id="c" x1="0" x2="512" y1="0" y2="240" gradientUnits="userSpaceOnUse"><stop offset="0%" stop-color="#00f"/><stop offset="3.914%" stop-color="rgba(255,255,255,0)"/><stop offset="100%" stop-color="rgba(255,255,255,0)"/></linearGradient></defs><path stroke="url(#a)" d="m0 0 565-29"/><path stroke="url(#b)" d="M0 0v-566"/><path stroke="url(#c)" d="m0 0 512 240"/></svg>