<svg xmlns="http://www.w3.org/2000/svg" width="400" height="400" viewBox="-200 -200 400 400"><path fill="gray" d="M-200-200h400v400h-400z"/><g stroke="#000" stroke-linecap="round" stroke-linejoin="round"><path fill="rgba(0,140,0,0.8)" d="m71-15 1-6-44-20v6z"/><path fill="rgba(0,140,0,0.8)" d="m-38 55-43-32L28-35l43 20z"/><path fill="rgba(0,140,0,0.8)" d="m-81 23-1-6L28-41v6zM-38 55l-1-6L72-21l-1 6z"/><path fill="rgba(0,140,0,0.8)" d="m-39 49-43-32L28-41l44 20z"/><path fill="rgba(128,128,128,0.9)" d="M47-24v-9l-10-4v8z"/><path fill="rgba(128,128,128,0.9)" d="m44-23-10-4 3-2 10 5z"/><path fill="rgba(128,128,128,0.9)" d="M34-27v-9l3-1v8zM44-23v-8l3-2v9z"/><path fill="rgba(128,128,128,0.9)" d="m44-31-10-5 3-1 10 4z"/><path fill="rgba(128,128,128,0.9)" d="m44-23-10-4v-9l10 5zM31-15v-9l-10-5v9z"/><path fill="rgba(128,128,128,0.9)" d="m28-13-10-5 3-2 10 5z"/><path fill="rgba(128,128,128,0.9)" d="M18-18v-9l3-2v9zM28-13v-9l3-2v9z"/><path fill="rgba(128,128,128,0.9)" d="m28-22-10-5 3-2 10 5z"/><path fill="rgba(128,128,128,0.9)" d="m28-13-10-5v-9l10 5zM28-1v-8L-4-26l1 8z"/><path fill="rgba(128,128,128,0.9)" d="M4 14-27-5l24-13L28-1z"/><path fill="rgba(128,128,128,0.9)" d="m-27-5-1-9 24-12 1 8zM4 14V5L28-9v8z"/><path fill="rgba(128,128,128,0.9)" d="m4 5-32-19 24-12L28-9z"/><path fill="rgba(128,128,128,0.9)" d="M4 14-27-5l-1-9L4 5zM-8 24v-9L-44-7v8z"/><path fill="rgba(128,128,128,0.9)" d="m-37 42-36-25 29-16 36 23z"/><path fill="rgba(128,128,128,0.9)" d="m-73 17-1-9 30-15v8zM-37 42l-1-9 30-18v9z"/><path fill="rgba(128,128,128,0.9)" d="M-38 33-74 8l30-15 36 22z"/><path fill="rgba(128,128,128,0.9)" d="m-37 42-36-25-1-9 36 25z"/><path fill="rgba(0,140,0,0.8)" d="m-38 55-43-32-1-6 43 32z"/></g><text fill="#fff" dominant-baseline="central" font-family="sans-serif" font-size="14" text-anchor="middle" transform="matrix(-.8132 -.56768 .85268 -.51019 -40.984 12.04)">USBC</text><text fill="#fff" dominant-baseline="central" font-family="sans-serif" font-size="14" text-anchor="middle" transform="matrix(-.89544 -.42244 .85935 -.48581 40.781 -34.081)">LED</text><text fill="#fff" dominant-baseline="central" font-family="sans-serif" font-size="14" text-anchor="middle" transform="matrix(-.8564 -.49877 .85294 -.50477 .21 -11.1)">SW1</text><text fill="#fff" dominant-baseline="central" font-family="sans-serif" font-size="14" text-anchor="middle" transform="matrix(-.88434 -.44592 .86081 -.48664 24.66 -25.15)">R1</text></svg>